<?xml version="1.0" encoding="utf-8"?>
<!-- Generator: Adobe Illustrator 13.0.2, SVG Export Plug-In . SVG Version: 6.00 Build 14948)  -->
<!DOCTYPE svg PUBLIC "-//W3C//DTD SVG 1.1//EN" "http://www.w3.org/Graphics/SVG/1.1/DTD/svg11.dtd">
<svg version="1.1" id="Layer_1" xmlns="http://www.w3.org/2000/svg" xmlns:xlink="http://www.w3.org/1999/xlink" x="0px" y="0px"
	 width="64px" height="32px" viewBox="0 0 64 32" enable-background="new 0 0 64 32" xml:space="preserve">
<path fill="#FFFFFF" stroke="#FFFFFF" d="M6.847,18.905C6.339,14.069,8.902,4.123,15.068,2.427c0.292-0.094,0.882-0.524,1.052-0.685
	c-4.59,1.26-9.664,0.608-11.827,5.69c-1.507,3.539-1.614,6.706-2.009,9.412L1.998,18.96L6.847,18.905z"/>
<path fill="#FFFFFF" stroke="#FFFFFF" d="M25.527,1.214c-1.12,4.82-7.118,4.82-8.239,0C20.623,2.532,22.194,2.532,25.527,1.214
	 M14.43,2.495C6.762,4.604,4.016,18.347,7.799,26.458c1.896,4.064,6.968,5.787,11.68,5.787h10.398v-5.199H19.479
	c-7.245,0-7.801-4.502-7.801-9.967c0-1.715,0.062-3.096,0.607-4.809c0.404-1.271,0.961-2.289,1.668-3.055
	c0.708-0.766,1.538-1.307,2.491-1.625c0.954-0.317,1.965-0.477,3.034-0.477h10.4V7.111h9.498l-0.022-5.2h-4.709
	c-3.234,0-5.921,0.278-9.156-0.894c-1.452,1.48-6.523,1.536-7.976,0.056c-0.479,0.378-0.824,0.434-1.394,0.669
	C16.12,1.742,15.452,2.167,14.43,2.495z"/>
<path fill="#FFFFFF" stroke="#FFFFFF" d="M36.92,1.911l-1.393,5.201h5.185h9.146h2.77c1.014,0,1.878,0.289,2.601,0.867
	s1.082,1.588,1.082,3.033c0,1.646-0.359,2.78-1.082,3.402c-0.723,0.621-1.587,0.931-2.601,0.931h-2.77h-9.146h-6.066v16.902h6.066
	V20.546h8.189l6.413,11.701h7.021l-6.891-11.918c0.982-0.203,1.899-0.52,2.752-0.955c0.853-0.432,1.59-1.025,2.211-1.775
	c0.62-0.752,1.104-1.669,1.45-2.752c0.349-1.083,0.522-2.361,0.522-3.834c0-1.676-0.254-3.098-0.76-4.269
	c-0.506-1.17-1.205-2.109-2.101-2.816c-0.896-0.707-1.938-1.22-3.121-1.538c-1.185-0.318-2.439-0.477-3.771-0.477H40.712H36.92
	V1.911z"/>
</svg>
