<?xml version="1.0" encoding="utf-8"?>
<!-- Generator: Adobe Illustrator 17.0.0, SVG Export Plug-In . SVG Version: 6.00 Build 0)  -->
<!DOCTYPE svg PUBLIC "-//W3C//DTD SVG 1.1//EN" "http://www.w3.org/Graphics/SVG/1.1/DTD/svg11.dtd">
<svg version="1.1" id="Layer_1" xmlns="http://www.w3.org/2000/svg" xmlns:xlink="http://www.w3.org/1999/xlink" x="0px" y="0px"
	 width="595.28px" height="841.89px" viewBox="0 0 595.28 841.89" enable-background="new 0 0 595.28 841.89" xml:space="preserve">
<g>
	<g>
		<path fill="#231916" d="M389.43,403.026h6.885v13.422H408.2v-13.422h6.835v35.561H408.2v-15.601h-11.886v15.601h-6.885V403.026z
			 M383.545,409.267l-4.747,4.507c-3.228-3.4-6.851-5.101-10.887-5.101c-3.401,0-6.274,1.164-8.602,3.484
			c-2.336,2.319-3.5,5.175-3.5,8.576c0,2.369,0.52,4.474,1.552,6.307c1.032,1.84,2.493,3.285,4.375,4.334
			c1.89,1.049,3.987,1.568,6.298,1.568c1.965,0,3.764-0.363,5.39-1.098c1.635-0.734,3.426-2.071,5.374-4.003l4.598,4.804
			c-2.625,2.567-5.109,4.35-7.446,5.341c-2.336,0.998-5.01,1.494-8.007,1.494c-5.531,0-10.062-1.75-13.587-5.259
			c-3.524-3.5-5.283-7.998-5.283-13.471c0-3.55,0.8-6.695,2.41-9.451c1.602-2.758,3.897-4.969,6.893-6.645
			c2.988-1.675,6.207-2.517,9.666-2.517c2.93,0,5.753,0.619,8.477,1.857C379.236,405.231,381.58,406.989,383.545,409.267z
			 M318.903,403.026h6.785v23.006c0,1.981,0.173,3.384,0.52,4.201c0.347,0.826,0.916,1.478,1.717,1.973
			c0.8,0.487,1.766,0.734,2.889,0.734c1.197,0,2.22-0.272,3.087-0.825c0.867-0.545,1.461-1.238,1.791-2.088
			c0.33-0.842,0.496-2.46,0.496-4.846v-22.155h6.785v21.198c0,3.583-0.198,6.058-0.602,7.445c-0.404,1.387-1.172,2.724-2.311,4.012
			c-1.131,1.287-2.443,2.245-3.929,2.864c-1.477,0.619-3.203,0.933-5.167,0.933c-2.575,0-4.821-0.594-6.727-1.775
			c-1.915-1.189-3.277-2.666-4.103-4.45c-0.817-1.783-1.23-4.787-1.23-9.03V403.026z M294.223,408.772
			c-3.277,0-6.034,1.147-8.263,3.434c-2.237,2.286-3.351,5.192-3.351,8.725c0,3.929,1.403,7.041,4.217,9.327
			c2.188,1.791,4.689,2.682,7.521,2.682c3.194,0,5.918-1.164,8.163-3.483c2.253-2.32,3.376-5.176,3.376-8.576
			c0-3.384-1.13-6.249-3.4-8.593C300.224,409.944,297.467,408.772,294.223,408.772z M294.322,402.135
			c5.027,0,9.353,1.824,12.968,5.464c3.624,3.64,5.432,8.081,5.432,13.315c0,5.192-1.783,9.583-5.357,13.174
			c-3.566,3.591-7.9,5.391-12.992,5.391c-5.341,0-9.774-1.85-13.298-5.539c-3.533-3.69-5.299-8.074-5.299-13.15
			c0-3.392,0.825-6.521,2.468-9.377c1.643-2.848,3.905-5.11,6.777-6.777C287.9,402.969,291.004,402.135,294.322,402.135z
			 M271.622,409.267l-4.746,4.507c-3.228-3.4-6.852-5.101-10.887-5.101c-3.401,0-6.274,1.164-8.602,3.484
			c-2.336,2.319-3.5,5.175-3.5,8.576c0,2.369,0.52,4.474,1.552,6.307c1.032,1.84,2.493,3.285,4.375,4.334
			c1.89,1.049,3.986,1.568,6.298,1.568c1.965,0,3.764-0.363,5.39-1.098c1.635-0.734,3.426-2.071,5.374-4.003l4.598,4.804
			c-2.625,2.567-5.109,4.35-7.446,5.341c-2.336,0.998-5.011,1.494-8.007,1.494c-5.531,0-10.062-1.75-13.587-5.259
			c-3.524-3.5-5.283-7.998-5.283-13.471c0-3.55,0.8-6.695,2.41-9.451c1.601-2.758,3.897-4.969,6.893-6.645
			c2.988-1.675,6.207-2.517,9.666-2.517c2.93,0,5.753,0.619,8.477,1.857C267.314,405.231,269.657,406.989,271.622,409.267z"/>
		<path fill="#231916" d="M482.17,403.026H500v3.467h-14.264v11.144H500v3.467h-14.264v17.483h-3.566V403.026z M455.665,403.026
			h20.356v3.467h-16.79v11.144h16.641v3.467h-16.641v14.016h16.641v3.467h-20.207V403.026z M429.316,406.493v12.085l6.142,0.049
			c2.385,0,4.143-0.223,5.283-0.677c1.139-0.454,2.031-1.172,2.675-2.162c0.636-0.99,0.957-2.097,0.957-3.326
			c0-1.189-0.322-2.279-0.974-3.252c-0.644-0.975-1.494-1.668-2.551-2.088c-1.049-0.422-2.798-0.628-5.242-0.628H429.316z
			 M425.75,403.026h7.099c3.954,0,6.637,0.165,8.04,0.488c2.121,0.478,3.838,1.51,5.159,3.104c1.329,1.585,1.99,3.541,1.99,5.86
			c0,1.932-0.454,3.633-1.37,5.093c-0.909,1.469-2.212,2.575-3.913,3.326c-1.692,0.751-4.037,1.131-7.025,1.147l12.802,16.543
			h-4.366l-12.803-16.543h-2.047v16.543h-3.566V403.026z"/>
	</g>
	<g>
		<path fill="#231916" d="M129.55,390.327c0.099-0.017,0.199-0.034,0.299-0.051C129.749,390.293,129.649,390.309,129.55,390.327"/>
		<path fill="#231916" d="M172.722,389.839h7.742h24.331c2.713,0,5.279,0.324,7.698,0.973c2.419,0.649,4.542,1.696,6.37,3.141
			c1.829,1.445,3.259,3.362,4.292,5.751c1.032,2.389,1.549,5.294,1.549,8.716c0,3.008-0.354,5.619-1.062,7.83
			c-0.708,2.212-1.695,4.085-2.964,5.618c-1.268,1.533-2.773,2.742-4.513,3.628c-1.74,0.884-3.613,1.533-5.618,1.946l14.068,24.331
			h-14.334l-13.095-23.889h-16.722v23.889h-12.388v-34.506h12.388h18.674h5.657c2.065,0,3.834-0.634,5.309-1.903
			c1.474-1.268,2.212-3.583,2.212-6.945c0-2.95-0.737-5.014-2.212-6.193c-1.475-1.18-3.244-1.77-5.309-1.77h-5.657h-18.674H169.88
			L172.722,389.839z"/>
		<path fill="#231916" d="M135.34,451.774c-3.657,0-7.093-0.545-10.308-1.636c-3.215-1.092-6.031-2.847-8.45-5.265
			c-2.419-2.419-4.321-5.604-5.707-9.556c-1.386-3.952-2.079-8.789-2.079-14.511H95.89l13.656-30.858h23.004l-0.032,0.002
			c0.437-0.035,0.876-0.061,1.319-0.08c-0.075,0.293-0.114,0.594-0.114,0.901c0,2.821,3.28,5.107,7.327,5.107
			c4.046,0,7.327-2.286,7.327-5.107c0-0.318-0.042-0.631-0.122-0.932h6.476h3.614h9.732h2.644l-2.842,10.617h-9.534h-3.614h-17.098
			h-0.524h-15.926v20.35c0,3.952,0.413,7.226,1.238,9.822c0.827,2.595,1.961,4.675,3.407,6.238c1.445,1.563,3.141,2.669,5.087,3.318
			c1.947,0.649,4.011,0.973,6.193,0.973h21.235v10.618H135.34z"/>
		<path fill-rule="evenodd" clip-rule="evenodd" fill="#231916" d="M132.999,402.974v35.19c-0.433-0.104-0.861-0.227-1.287-0.369
			c-1.578-0.526-2.906-1.418-4.035-2.638c-1.362-1.474-2.252-3.398-2.855-5.292c-0.663-2.084-0.957-4.416-1.066-6.679v-20.212
			H132.999z"/>
		<path fill-rule="evenodd" clip-rule="evenodd" fill="#231916" d="M145.672,402.974v35.665h-8.563
			c-0.227,0-0.455-0.004-0.681-0.012v-35.653H145.672z"/>
		<rect x="149.101" y="402.974" fill-rule="evenodd" clip-rule="evenodd" fill="#231916" width="9.244" height="35.665"/>
	</g>
</g>
</svg>
