<?xml version="1.0" encoding="utf-8"?>
<!-- Generator: Adobe Illustrator 17.0.0, SVG Export Plug-In . SVG Version: 6.00 Build 0)  -->
<!DOCTYPE svg PUBLIC "-//W3C//DTD SVG 1.1//EN" "http://www.w3.org/Graphics/SVG/1.1/DTD/svg11.dtd">
<svg version="1.1" id="Layer_1" xmlns="http://www.w3.org/2000/svg" xmlns:xlink="http://www.w3.org/1999/xlink" x="0px" y="0px"
	 width="595.28px" height="841.89px" viewBox="0 0 595.28 841.89" enable-background="new 0 0 595.28 841.89" xml:space="preserve">
<g>
	<rect x="190.562" y="313.587" fill-rule="evenodd" clip-rule="evenodd" fill="#EC8222" width="214.438" height="214.438"/>
	<path fill="#FFFFFF" d="M259.568,382.925c0.123-0.022,0.247-0.043,0.371-0.063C259.815,382.882,259.691,382.904,259.568,382.925"/>
	<path fill="#FFFFFF" d="M313.224,382.319h9.622h30.24c3.372,0,6.561,0.403,9.567,1.209c3.006,0.807,5.645,2.108,7.918,3.905
		c2.272,1.795,4.05,4.178,5.333,7.148c1.283,2.969,1.924,6.579,1.924,10.831c0,3.739-0.44,6.983-1.32,9.732
		c-0.88,2.749-2.108,5.077-3.684,6.983c-1.576,1.906-3.446,3.409-5.608,4.509c-2.163,1.099-4.491,1.906-6.983,2.419l17.485,30.24
		h-17.814l-16.276-29.691h-20.783v29.691h-15.396v-42.886h15.396h23.209h7.031c2.565,0,4.765-0.789,6.598-2.364
		c1.832-1.576,2.749-4.454,2.749-8.632c0-3.666-0.917-6.232-2.749-7.698c-1.834-1.466-4.033-2.199-6.598-2.199h-7.031h-23.209
		h-13.155L313.224,382.319z"/>
	<path fill="#FFFFFF" d="M266.764,459.294c-4.545,0-8.815-0.678-12.811-2.034c-3.995-1.356-7.496-3.537-10.502-6.543
		c-3.005-3.006-5.37-6.965-7.093-11.877c-1.723-4.912-2.584-10.923-2.584-18.034h-16.041l16.971-38.352h28.591l-0.039,0.004
		c0.542-0.044,1.088-0.078,1.639-0.101c-0.093,0.364-0.142,0.738-0.142,1.12c0,3.506,4.078,6.348,9.107,6.348
		c5.029,0,9.106-2.842,9.106-6.348c0-0.395-0.051-0.783-0.151-1.158h8.048h4.491h12.096h3.285l-3.532,13.196h-11.849h-4.491h-21.249
		h-0.65H249.17v25.292c0,4.912,0.513,8.981,1.539,12.206c1.027,3.226,2.438,5.81,4.234,7.753c1.796,1.943,3.904,3.316,6.323,4.123
		c2.42,0.806,4.985,1.209,7.698,1.209h26.391v13.196H266.764z"/>
	<path fill-rule="evenodd" clip-rule="evenodd" fill="#FFFFFF" d="M263.854,398.644v43.736c-0.537-0.131-1.071-0.283-1.599-0.459
		c-1.961-0.654-3.613-1.762-5.015-3.279c-1.693-1.832-2.8-4.223-3.55-6.577c-0.823-2.59-1.189-5.488-1.325-8.3v-25.12H263.854z"/>
	<path fill-rule="evenodd" clip-rule="evenodd" fill="#FFFFFF" d="M279.604,398.644v44.326h-10.641
		c-0.283,0-0.565-0.005-0.848-0.015v-44.311H279.604z"/>
	<rect x="283.866" y="398.644" fill-rule="evenodd" clip-rule="evenodd" fill="#FFFFFF" width="11.488" height="44.326"/>
	<path fill-rule="evenodd" clip-rule="evenodd" fill="#E31E26" d="M263.854,398.644v43.735c-0.538-0.13-1.071-0.282-1.6-0.458
		c-1.96-0.654-3.611-1.762-5.014-3.279c-1.694-1.832-2.8-4.223-3.551-6.577c-0.823-2.591-1.189-5.488-1.324-8.301v-25.12H263.854z
		 M279.605,398.644v44.326h-10.643l-0.847-0.016v-44.31H279.605z M295.355,398.644v44.326h-11.489v-44.326H295.355z M405,421.984
		l-31.315-31.314c0.856,1.165,1.595,2.469,2.219,3.91c1.283,2.97,1.924,6.58,1.924,10.832c0,3.738-0.44,6.983-1.32,9.732
		c-0.879,2.749-2.107,5.077-3.683,6.983c-1.576,1.906-3.445,3.409-5.609,4.509c-2.162,1.099-4.49,1.907-6.983,2.419l17.485,30.241
		h-17.814l-16.275-29.692h-20.784v29.692h-15.396v-42.887h15.396h23.209h7.031c2.565,0,4.766-0.789,6.598-2.364
		c1.832-1.576,2.749-4.454,2.749-8.632c0-3.666-0.917-6.232-2.749-7.698c-1.833-1.466-4.033-2.199-6.598-2.199h-7.031h-22.124
		h-1.085h-13.155l3.008-11.232l-1.963-1.963l-3.532,13.196h-11.848h-4.492h-21.25h-0.65H249.17v25.293
		c0,4.91,0.512,8.98,1.54,12.205c1.026,3.227,2.436,5.811,4.233,7.754c1.796,1.943,3.904,3.316,6.323,4.124
		c2.419,0.806,4.985,1.209,7.697,1.209h26.393v13.196h-28.592c-2.23,0-4.393-0.163-6.49-0.49l69.22,69.22H405V421.984z"/>
</g>
</svg>
