<?xml version="1.0" encoding="utf-8"?>
<!-- Generator: Adobe Illustrator 17.0.0, SVG Export Plug-In . SVG Version: 6.00 Build 0)  -->
<!DOCTYPE svg PUBLIC "-//W3C//DTD SVG 1.1//EN" "http://www.w3.org/Graphics/SVG/1.1/DTD/svg11.dtd">
<svg version="1.1" id="Layer_1" xmlns="http://www.w3.org/2000/svg" xmlns:xlink="http://www.w3.org/1999/xlink" x="0px" y="0px"
	 width="595.28px" height="841.89px" viewBox="0 0 595.28 841.89" enable-background="new 0 0 595.28 841.89" xml:space="preserve">
<g>
	<g>
		<g>
			<path fill="#FFFFFF" d="M310.904,447.733h4.277v8.34h7.386v-8.34h4.247v22.096h-4.247v-9.694h-7.386v9.694h-4.277V447.733z
				 M307.246,451.61l-2.949,2.8c-2.005-2.113-4.257-3.17-6.765-3.17c-2.113,0-3.898,0.723-5.344,2.165
				c-1.452,1.441-2.175,3.216-2.175,5.329c0,1.472,0.323,2.78,0.964,3.918c0.641,1.144,1.549,2.042,2.719,2.693
				c1.175,0.651,2.477,0.975,3.914,0.975c1.221,0,2.339-0.226,3.349-0.682c1.016-0.456,2.129-1.287,3.339-2.488l2.857,2.985
				c-1.631,1.595-3.175,2.703-4.626,3.319c-1.452,0.621-3.113,0.928-4.975,0.928c-3.437,0-6.252-1.087-8.443-3.267
				c-2.19-2.175-3.283-4.97-3.283-8.37c0-2.206,0.497-4.16,1.498-5.873c0.995-1.713,2.421-3.087,4.283-4.129
				c1.857-1.042,3.857-1.565,6.006-1.565c1.821,0,3.575,0.385,5.267,1.154C304.569,449.102,306.026,450.195,307.246,451.61z
				 M267.081,447.733h4.216v14.295c0,1.231,0.108,2.103,0.323,2.611c0.215,0.513,0.569,0.918,1.067,1.226
				c0.497,0.303,1.098,0.457,1.795,0.457c0.744,0,1.38-0.169,1.918-0.513c0.539-0.339,0.908-0.769,1.113-1.297
				c0.205-0.523,0.308-1.529,0.308-3.011v-13.766h4.216v13.171c0,2.226-0.123,3.765-0.374,4.626
				c-0.251,0.862-0.728,1.693-1.436,2.493c-0.703,0.8-1.518,1.395-2.441,1.78c-0.918,0.385-1.99,0.579-3.211,0.579
				c-1.6,0-2.995-0.369-4.18-1.103c-1.19-0.739-2.036-1.657-2.549-2.765c-0.508-1.108-0.764-2.975-0.764-5.611V447.733z
				 M251.745,451.302c-2.036,0-3.749,0.713-5.134,2.134c-1.39,1.421-2.082,3.226-2.082,5.421c0,2.441,0.872,4.375,2.621,5.796
				c1.359,1.113,2.913,1.667,4.672,1.667c1.985,0,3.678-0.723,5.073-2.165c1.4-1.441,2.098-3.216,2.098-5.329
				c0-2.103-0.703-3.883-2.113-5.339C255.474,452.031,253.761,451.302,251.745,451.302z M251.807,447.179
				c3.124,0,5.811,1.134,8.058,3.395c2.252,2.262,3.375,5.021,3.375,8.273c0,3.226-1.108,5.955-3.329,8.186
				c-2.216,2.231-4.908,3.349-8.073,3.349c-3.319,0-6.073-1.149-8.263-3.441c-2.195-2.293-3.293-5.016-3.293-8.171
				c0-2.108,0.513-4.052,1.533-5.826c1.021-1.77,2.426-3.175,4.211-4.211C247.816,447.697,249.745,447.179,251.807,447.179z
				 M237.702,451.61l-2.949,2.8c-2.005-2.113-4.257-3.17-6.765-3.17c-2.113,0-3.898,0.723-5.344,2.165
				c-1.452,1.441-2.175,3.216-2.175,5.329c0,1.472,0.323,2.78,0.964,3.918c0.641,1.144,1.549,2.042,2.718,2.693
				c1.175,0.651,2.478,0.975,3.914,0.975c1.221,0,2.339-0.226,3.349-0.682c1.016-0.456,2.129-1.287,3.339-2.488l2.857,2.985
				c-1.631,1.595-3.175,2.703-4.626,3.319c-1.452,0.621-3.113,0.928-4.975,0.928c-3.436,0-6.252-1.087-8.442-3.267
				c-2.19-2.175-3.283-4.97-3.283-8.37c0-2.206,0.497-4.16,1.497-5.873c0.995-1.713,2.421-3.087,4.283-4.129
				c1.857-1.042,3.857-1.565,6.006-1.565c1.821,0,3.575,0.385,5.267,1.154C235.025,449.102,236.481,450.195,237.702,451.61z"/>
		</g>
		<path fill="#FFFFFF" d="M368.528,447.733h11.079v2.154h-8.863v6.924h8.863v2.154h-8.863v10.863h-2.216V447.733z M352.059,447.733
			h12.648v2.154h-10.432v6.924h10.34v2.154h-10.34v8.709h10.34v2.154h-12.556V447.733z M335.687,449.887v7.509l3.816,0.031
			c1.482,0,2.575-0.139,3.283-0.421c0.708-0.282,1.262-0.728,1.662-1.344c0.395-0.615,0.595-1.303,0.595-2.067
			c0-0.739-0.2-1.415-0.605-2.021c-0.4-0.605-0.928-1.036-1.585-1.297c-0.651-0.262-1.739-0.39-3.257-0.39H335.687z
			 M333.471,447.733h4.411c2.457,0,4.124,0.103,4.996,0.303c1.318,0.297,2.385,0.938,3.205,1.928c0.826,0.985,1.236,2.2,1.236,3.642
			c0,1.2-0.282,2.257-0.851,3.165c-0.564,0.913-1.375,1.6-2.431,2.067c-1.051,0.467-2.508,0.702-4.365,0.713l7.955,10.278h-2.713
			l-7.955-10.278h-1.272v10.278h-2.216V447.733z"/>
	</g>
	<g>
		<path fill="#FFFFFF" d="M266.104,371.683c0.103-0.018,0.206-0.036,0.31-0.053C266.31,371.647,266.207,371.665,266.104,371.683"/>
		<path fill="#FFFFFF" d="M310.813,371.178h8.017h25.198c2.81,0,5.467,0.336,7.972,1.008c2.504,0.672,4.703,1.756,6.597,3.253
			c1.894,1.497,3.375,3.482,4.444,5.956c1.069,2.474,1.604,5.482,1.604,9.026c0,3.115-0.367,5.818-1.1,8.109
			c-0.733,2.291-1.756,4.23-3.07,5.818c-1.313,1.588-2.871,2.84-4.673,3.757c-1.802,0.916-3.742,1.588-5.818,2.016l14.569,25.198
			h-14.844l-13.561-24.74H318.83v24.74h-12.828v-35.735h12.828h19.339h5.859c2.138,0,3.97-0.657,5.498-1.97
			c1.527-1.313,2.291-3.711,2.291-7.193c0-3.054-0.764-5.193-2.291-6.414c-1.527-1.222-3.36-1.832-5.498-1.832h-5.859H318.83
			h-10.961L310.813,371.178z"/>
		<path fill="#FFFFFF" d="M272.1,435.318c-3.787,0-7.346-0.565-10.675-1.695c-3.329-1.13-6.246-2.948-8.751-5.452
			c-2.504-2.504-4.474-5.803-5.91-9.896c-1.435-4.093-2.154-9.102-2.154-15.027h-13.366l14.142-31.957h23.823l-0.033,0.003
			c0.452-0.036,0.907-0.064,1.366-0.084c-0.077,0.303-0.118,0.615-0.118,0.933c0,2.921,3.397,5.289,7.588,5.289
			c4.191,0,7.588-2.368,7.588-5.289c0-0.33-0.044-0.652-0.126-0.966h6.706h3.743h10.079h2.737l-2.944,10.996h-9.873h-3.743h-17.706
			h-0.542H257.44v21.074c0,4.093,0.427,7.483,1.283,10.17c0.855,2.688,2.031,4.841,3.528,6.46c1.497,1.619,3.253,2.764,5.268,3.436
			c2.016,0.672,4.154,1.008,6.414,1.008h21.991v10.995H272.1z"/>
		<path fill-rule="evenodd" clip-rule="evenodd" fill="#FFFFFF" d="M269.676,384.781v36.443c-0.448-0.108-0.892-0.235-1.333-0.382
			c-1.634-0.544-3.01-1.468-4.179-2.732c-1.411-1.526-2.333-3.518-2.958-5.48c-0.686-2.158-0.991-4.573-1.104-6.916v-20.931H269.676
			z"/>
		<path fill-rule="evenodd" clip-rule="evenodd" fill="#FFFFFF" d="M282.799,384.781v36.935h-8.867
			c-0.236,0-0.471-0.004-0.706-0.013v-36.922H282.799z"/>
		<rect x="286.35" y="384.781" fill-rule="evenodd" clip-rule="evenodd" fill="#FFFFFF" width="9.573" height="36.935"/>
	</g>
</g>
</svg>
