<?xml version="1.0" encoding="utf-8"?>
<!-- Generator: Adobe Illustrator 17.0.0, SVG Export Plug-In . SVG Version: 6.00 Build 0)  -->
<!DOCTYPE svg PUBLIC "-//W3C//DTD SVG 1.1//EN" "http://www.w3.org/Graphics/SVG/1.1/DTD/svg11.dtd">
<svg version="1.1" id="Layer_1" xmlns="http://www.w3.org/2000/svg" xmlns:xlink="http://www.w3.org/1999/xlink" x="0px" y="0px"
	 width="595.28px" height="841.89px" viewBox="0 0 595.28 841.89" enable-background="new 0 0 595.28 841.89" xml:space="preserve">
<g>
	<g>
		<path fill="#221915" d="M268.904,438.446h4.277v8.34h7.386v-8.34h4.247v22.096h-4.247v-9.694h-7.386v9.694h-4.277V438.446z
			 M265.246,442.323l-2.949,2.8c-2.005-2.113-4.257-3.17-6.765-3.17c-2.113,0-3.898,0.723-5.344,2.164
			c-1.452,1.441-2.175,3.216-2.175,5.329c0,1.472,0.323,2.78,0.964,3.918c0.641,1.144,1.549,2.042,2.719,2.693
			c1.175,0.651,2.477,0.975,3.914,0.975c1.221,0,2.339-0.226,3.349-0.682c1.016-0.456,2.129-1.287,3.339-2.487l2.857,2.985
			c-1.631,1.595-3.175,2.703-4.626,3.319c-1.452,0.621-3.113,0.928-4.975,0.928c-3.437,0-6.252-1.087-8.443-3.267
			c-2.19-2.175-3.283-4.97-3.283-8.371c0-2.206,0.497-4.159,1.498-5.873c0.995-1.713,2.421-3.087,4.283-4.129
			c1.857-1.041,3.857-1.564,6.006-1.564c1.821,0,3.575,0.385,5.267,1.154C262.569,439.815,264.026,440.908,265.246,442.323z
			 M225.081,438.446h4.216v14.295c0,1.231,0.108,2.103,0.323,2.611c0.215,0.513,0.569,0.918,1.067,1.226
			c0.497,0.303,1.098,0.457,1.795,0.457c0.744,0,1.38-0.169,1.918-0.513c0.539-0.339,0.908-0.769,1.113-1.298
			c0.205-0.523,0.308-1.528,0.308-3.011v-13.766h4.216v13.171c0,2.226-0.123,3.765-0.374,4.626
			c-0.251,0.862-0.728,1.693-1.436,2.493c-0.703,0.8-1.518,1.395-2.441,1.78c-0.918,0.385-1.99,0.579-3.211,0.579
			c-1.6,0-2.995-0.369-4.18-1.103c-1.19-0.739-2.036-1.657-2.549-2.765c-0.508-1.108-0.764-2.975-0.764-5.611V438.446z
			 M209.745,442.015c-2.036,0-3.749,0.713-5.134,2.134c-1.39,1.421-2.082,3.226-2.082,5.421c0,2.441,0.872,4.375,2.621,5.796
			c1.359,1.113,2.913,1.667,4.672,1.667c1.985,0,3.678-0.723,5.073-2.165c1.4-1.441,2.098-3.216,2.098-5.329
			c0-2.103-0.703-3.883-2.113-5.339C213.474,442.744,211.761,442.015,209.745,442.015z M209.807,437.892
			c3.124,0,5.811,1.134,8.058,3.395c2.252,2.262,3.375,5.021,3.375,8.273c0,3.226-1.108,5.955-3.329,8.186
			c-2.216,2.231-4.908,3.349-8.073,3.349c-3.319,0-6.073-1.149-8.263-3.442c-2.195-2.293-3.293-5.016-3.293-8.171
			c0-2.108,0.513-4.052,1.533-5.826c1.021-1.77,2.426-3.175,4.211-4.211C205.816,438.41,207.745,437.892,209.807,437.892z
			 M195.702,442.323l-2.949,2.8c-2.005-2.113-4.257-3.17-6.765-3.17c-2.113,0-3.898,0.723-5.344,2.164
			c-1.452,1.441-2.175,3.216-2.175,5.329c0,1.472,0.323,2.78,0.964,3.918c0.641,1.144,1.549,2.042,2.718,2.693
			c1.175,0.651,2.478,0.975,3.914,0.975c1.221,0,2.339-0.226,3.349-0.682c1.016-0.456,2.129-1.287,3.339-2.487l2.857,2.985
			c-1.631,1.595-3.175,2.703-4.626,3.319c-1.452,0.621-3.113,0.928-4.975,0.928c-3.436,0-6.252-1.087-8.442-3.267
			c-2.19-2.175-3.283-4.97-3.283-8.371c0-2.206,0.497-4.159,1.497-5.873c0.995-1.713,2.421-3.087,4.283-4.129
			c1.857-1.041,3.857-1.564,6.006-1.564c1.821,0,3.575,0.385,5.267,1.154C193.025,439.815,194.481,440.908,195.702,442.323z"/>
		<path fill="#221915" d="M326.528,438.446h11.079v2.154h-8.863v6.924h8.863v2.154h-8.863v10.863h-2.216V438.446z M310.059,438.446
			h12.648v2.154h-10.432v6.924h10.34v2.154h-10.34v8.709h10.34v2.154h-12.556V438.446z M293.687,440.6v7.509l3.816,0.031
			c1.482,0,2.575-0.139,3.283-0.421c0.708-0.282,1.262-0.728,1.662-1.344c0.395-0.615,0.595-1.303,0.595-2.067
			c0-0.738-0.2-1.415-0.605-2.021c-0.4-0.605-0.928-1.036-1.585-1.297c-0.651-0.262-1.739-0.39-3.257-0.39H293.687z
			 M291.471,438.446h4.411c2.457,0,4.124,0.103,4.996,0.303c1.318,0.297,2.385,0.939,3.205,1.928c0.826,0.985,1.236,2.2,1.236,3.642
			c0,1.2-0.282,2.257-0.851,3.165c-0.564,0.913-1.375,1.6-2.431,2.067c-1.051,0.467-2.508,0.703-4.365,0.713l7.955,10.278h-2.713
			l-7.955-10.278h-1.272v10.278h-2.216V438.446z"/>
	</g>
	<g>
		<path fill-rule="evenodd" clip-rule="evenodd" fill="#221915" d="M225.708,376.313c-0.307,0.083-0.613,0.174-0.916,0.276
			c-1.597,0.532-2.941,1.435-4.083,2.671c-1.387,1.5-2.294,3.466-2.908,5.396c-0.59,1.855-0.879,3.863-1.025,5.799l-0.124,1.645
			v1.862c0,3.029,0.225,6.408,1.149,9.311c0.614,1.929,1.521,3.895,2.908,5.396c1.143,1.236,2.486,2.139,4.083,2.671
			c0.304,0.101,0.609,0.193,0.916,0.275V376.313z M237.587,375.726h-7.277c-0.596,0-1.19,0.027-1.78,0.083v36.31
			c0.59,0.056,1.184,0.083,1.78,0.083h7.277V375.726z M249.465,412.201v-36.475h-9.057v36.475H249.465z"/>
		<path fill-rule="evenodd" clip-rule="evenodd" fill="#221915" d="M201.123,397.466c-1.076-10.222,4.346-31.255,17.385-34.841
			c0.616-0.198,1.15-1.16,1.511-1.497c-9.707,2.661-19.72,1.337-24.296,12.083c-3.187,7.484-3.412,14.181-4.247,19.905l-0.608,4.47
			L201.123,397.466z"/>
		<path fill-rule="evenodd" clip-rule="evenodd" fill="#221915" d="M243.1,360.418c-2.369,10.192-15.052,10.192-17.421,0
			C232.729,363.202,236.05,363.202,243.1,360.418 M219.633,363.125c-16.212,4.459-22.021,33.519-14.019,50.67
			c4.01,8.594,14.732,12.236,24.695,12.236H252.3v-10.995h-21.991c-15.318,0-16.493-9.514-16.493-21.075
			c0-3.621,0.13-6.544,1.283-10.166c0.856-2.688,2.031-4.841,3.528-6.46c1.497-1.619,3.253-2.764,5.268-3.436
			c2.016-0.672,4.154-1.008,6.414-1.008H252.3v-0.004h9.873l2.943-10.996h-2.737c-6.84,0-13.336,1.153-19.137-3.426
			c-3.071,3.132-14.633,3.132-17.704,0c-1.014,0.8-2.14,1.431-3.346,1.927C222.192,360.392,221.797,362.432,219.633,363.125z"/>
		<path fill-rule="evenodd" clip-rule="evenodd" fill="#221915" d="M267.189,361.891l-2.943,10.996h10.961h19.339h5.859
			c2.138,0,3.97,0.611,5.498,1.832c1.527,1.222,2.291,3.36,2.291,6.414c0,3.482-0.764,5.879-2.291,7.193
			c-1.527,1.313-3.36,1.97-5.498,1.97h-5.859h-19.339h-12.828v35.735h12.828v-24.74h17.318l13.561,24.74h14.844l-14.569-25.198
			c2.077-0.427,4.016-1.1,5.818-2.016c1.802-0.917,3.36-2.168,4.673-3.757c1.314-1.588,2.337-3.528,3.07-5.818
			c0.733-2.291,1.1-4.994,1.1-8.109c0-3.543-0.534-6.551-1.604-9.026c-1.069-2.474-2.55-4.459-4.444-5.956
			c-1.894-1.497-4.093-2.581-6.597-3.253c-2.505-0.672-5.162-1.008-7.972-1.008h-25.198H267.189z"/>
	</g>
</g>
</svg>
