<?xml version="1.0" encoding="utf-8"?>
<!-- Generator: Adobe Illustrator 13.0.2, SVG Export Plug-In . SVG Version: 6.00 Build 14948)  -->
<!DOCTYPE svg PUBLIC "-//W3C//DTD SVG 1.1//EN" "http://www.w3.org/Graphics/SVG/1.1/DTD/svg11.dtd">
<svg version="1.1" id="Layer_1" xmlns="http://www.w3.org/2000/svg" xmlns:xlink="http://www.w3.org/1999/xlink" x="0px" y="0px"
	 width="595.281px" height="841.89px" viewBox="0 0 595.281 841.89" enable-background="new 0 0 595.281 841.89"
	 xml:space="preserve">
<g>
	<path stroke="#FFFFFF" d="M393.115,392.491h6.705v13.071h11.574v-13.071h6.656v34.631h-6.656v-15.193H399.82v15.193h-6.705V392.491
		L393.115,392.491z M387.384,398.568l-4.623,4.389c-3.143-3.311-6.672-4.968-10.602-4.968c-3.312,0-6.111,1.134-8.377,3.393
		c-2.275,2.259-3.408,5.04-3.408,8.352c0,2.307,0.506,4.357,1.51,6.142c1.006,1.792,2.428,3.199,4.262,4.22
		c1.842,1.021,3.883,1.526,6.133,1.526c1.914,0,3.666-0.353,5.25-1.068c1.592-0.715,3.336-2.017,5.232-3.898l4.479,4.679
		c-2.557,2.499-4.977,4.237-7.25,5.202c-2.275,0.971-4.881,1.455-7.797,1.455c-5.387,0-9.801-1.705-13.232-5.121
		c-3.432-3.409-5.145-7.79-5.145-13.12c0-3.457,0.777-6.52,2.346-9.204c1.561-2.685,3.795-4.839,6.713-6.472
		c2.91-1.632,6.045-2.451,9.414-2.451c2.854,0,5.602,0.603,8.254,1.808C383.187,394.638,385.47,396.35,387.384,398.568z
		 M324.431,392.491h6.609v22.404c0,1.929,0.168,3.296,0.506,4.091c0.338,0.804,0.893,1.439,1.672,1.922
		c0.779,0.474,1.721,0.714,2.814,0.714c1.166,0,2.162-0.265,3.006-0.803c0.844-0.531,1.424-1.206,1.744-2.034
		c0.322-0.82,0.482-2.396,0.482-4.719v-21.576h6.607v20.644c0,3.489-0.193,5.9-0.586,7.251c-0.395,1.35-1.143,2.652-2.252,3.906
		c-1.102,1.254-2.379,2.188-3.826,2.789c-1.439,0.604-3.119,0.91-5.033,0.91c-2.508,0-4.695-0.58-6.551-1.729
		c-1.865-1.156-3.191-2.596-3.996-4.333c-0.795-1.736-1.197-4.662-1.197-8.794V392.491L324.431,392.491z M300.398,398.086
		c-3.192,0-5.878,1.117-8.048,3.344c-2.179,2.227-3.264,5.056-3.264,8.497c0,3.827,1.366,6.857,4.107,9.084
		c2.131,1.745,4.567,2.612,7.324,2.612c3.111,0,5.764-1.134,7.949-3.392c2.195-2.259,3.287-5.041,3.287-8.352
		c0-3.296-1.1-6.086-3.311-8.368C306.242,399.228,303.554,398.086,300.398,398.086z M300.494,391.623
		c4.895,0,9.107,1.777,12.629,5.321c3.529,3.545,5.289,7.87,5.289,12.967c0,5.056-1.736,9.333-5.217,12.831
		c-3.473,3.496-7.693,5.25-12.652,5.25c-5.202,0-9.519-1.801-12.952-5.395c-3.441-3.594-5.161-7.863-5.161-12.806
		c0-3.304,0.803-6.35,2.403-9.132c1.6-2.774,3.803-4.977,6.599-6.6C294.239,392.435,297.261,391.623,300.494,391.623z
		 M278.387,398.568l-4.622,4.389c-3.143-3.311-6.673-4.968-10.603-4.968c-3.312,0-6.11,1.134-8.377,3.393
		c-2.275,2.259-3.408,5.04-3.408,8.352c0,2.307,0.507,4.357,1.512,6.142c1.005,1.792,2.427,3.199,4.261,4.22
		c1.841,1.021,3.882,1.526,6.133,1.526c1.914,0,3.666-0.353,5.249-1.068c1.592-0.715,3.336-2.017,5.234-3.898l4.477,4.679
		c-2.556,2.499-4.976,4.237-7.251,5.202c-2.275,0.971-4.88,1.455-7.798,1.455c-5.386,0-9.799-1.705-13.232-5.121
		c-3.432-3.409-5.145-7.79-5.145-13.12c0-3.457,0.78-6.52,2.347-9.204c1.56-2.685,3.795-4.839,6.713-6.472
		c2.91-1.632,6.045-2.451,9.414-2.451c2.853,0,5.603,0.603,8.255,1.808C274.19,394.638,276.473,396.35,278.387,398.568z"/>
	<path stroke="#FFFFFF" d="M483.431,392.491h17.363v3.376h-13.891v10.852h13.891v3.376h-13.891v17.025h-3.473V392.491
		L483.431,392.491z M457.619,392.491h19.824v3.376h-16.352v10.852h16.207v3.376h-16.207v13.65h16.207v3.375h-19.68V392.491
		L457.619,392.491z M431.958,395.867v11.769l5.982,0.048c2.322,0,4.033-0.217,5.145-0.659c1.109-0.442,1.977-1.141,2.605-2.106
		c0.617-0.965,0.932-2.042,0.932-3.239c0-1.158-0.314-2.219-0.949-3.167c-0.627-0.949-1.455-1.624-2.482-2.034
		c-1.021-0.411-2.727-0.611-5.105-0.611L431.958,395.867L431.958,395.867z M428.486,392.491h6.914c3.85,0,6.463,0.161,7.828,0.475
		c2.066,0.466,3.738,1.471,5.025,3.022c1.295,1.543,1.938,3.449,1.938,5.707c0,1.881-0.441,3.538-1.334,4.96
		c-0.885,1.431-2.154,2.508-3.811,3.239c-1.648,0.731-3.932,1.102-6.842,1.117l12.469,16.109h-4.252l-12.469-16.109h-1.994v16.109
		h-3.473V392.491L428.486,392.491z"/>
</g>
<g>
	<path stroke="#FFFFFF" d="M132.017,226.182c-0.294,0.078-0.586,0.167-0.877,0.263c-1.528,0.509-2.813,1.373-3.907,2.555
		c-1.327,1.436-2.195,3.316-2.782,5.163c-0.565,1.775-0.842,3.696-0.981,5.549l-0.119,1.574v1.782c0,2.899,0.216,6.132,1.1,8.909
		c0.587,1.847,1.455,3.728,2.782,5.161c1.094,1.184,2.379,2.047,3.907,2.557c0.29,0.098,0.583,0.186,0.877,0.264V226.182z
		 M143.384,225.62h-6.964c-0.571,0-1.139,0.025-1.704,0.079v34.742c0.565,0.055,1.133,0.08,1.704,0.08h6.964V225.62z
		 M154.749,260.523v-34.902h-8.666v34.902H154.749z"/>
	<path stroke="#FFFFFF" d="M108.493,246.423c-1.029-9.78,4.158-29.906,16.635-33.338c0.589-0.189,1.1-1.11,1.445-1.432
		c-9.287,2.547-18.869,1.278-23.247,11.561c-3.049,7.161-3.265,13.569-4.063,19.046l-0.581,4.277L108.493,246.423z"/>
	<path stroke="#FFFFFF" d="M148.658,210.973c-2.266,9.753-14.402,9.753-16.669,0C138.736,213.637,141.913,213.637,148.658,210.973
		 M126.204,213.563c-15.512,4.266-21.071,32.073-13.414,48.483c3.837,8.225,14.097,11.707,23.63,11.707h21.041v-10.52H136.42
		c-14.657,0-15.782-9.105-15.782-20.166c0-3.466,0.125-6.262,1.228-9.727c0.818-2.572,1.944-4.632,3.376-6.181
		c1.433-1.549,3.112-2.644,5.041-3.288c1.929-0.643,3.976-0.965,6.138-0.965h21.041v-0.004h9.447l2.817-10.522h-2.619
		c-6.545,0-12.761,1.104-18.312-3.278c-2.938,2.996-14.002,2.996-16.94,0c-0.97,0.766-2.047,1.369-3.201,1.845
		C128.653,210.949,128.274,212.9,126.204,213.563z"/>
	<path stroke="#FFFFFF" d="M171.709,212.382l-2.816,10.522h10.488h18.504h5.607c2.046,0,3.799,0.584,5.26,1.753
		s2.192,3.215,2.192,6.138c0,3.331-0.731,5.626-2.192,6.882c-1.461,1.256-3.215,1.885-5.26,1.885h-5.607h-18.504h-12.274v34.193
		h12.274v-23.672h16.571l12.975,23.672h14.203l-13.94-24.11c1.987-0.409,3.843-1.052,5.568-1.929
		c1.724-0.878,3.214-2.075,4.47-3.595c1.257-1.519,2.236-3.375,2.938-5.567c0.702-2.191,1.052-4.778,1.052-7.758
		c0-3.391-0.512-6.269-1.535-8.636c-1.022-2.368-2.439-4.267-4.251-5.699c-1.812-1.432-3.917-2.469-6.313-3.112
		s-4.938-0.965-7.627-0.965h-24.111h-7.672V212.382z"/>
</g>
</svg>
