<?xml version="1.0" encoding="utf-8"?>
<!-- Generator: Adobe Illustrator 17.0.0, SVG Export Plug-In . SVG Version: 6.00 Build 0)  -->
<!DOCTYPE svg PUBLIC "-//W3C//DTD SVG 1.1//EN" "http://www.w3.org/Graphics/SVG/1.1/DTD/svg11.dtd">
<svg version="1.1" id="Layer_1" xmlns="http://www.w3.org/2000/svg" xmlns:xlink="http://www.w3.org/1999/xlink" x="0px" y="0px"
	 width="595.28px" height="841.89px" viewBox="0 0 595.28 841.89" enable-background="new 0 0 595.28 841.89" xml:space="preserve">
<g>
	<g>
		<path fill="#FFFFFF" d="M393.115,392.491h6.705v13.071h11.575v-13.071h6.656v34.631h-6.656v-15.193H399.82v15.193h-6.705V392.491z
			 M387.384,398.568l-4.622,4.389c-3.143-3.311-6.672-4.968-10.603-4.968c-3.312,0-6.11,1.134-8.377,3.393
			c-2.275,2.259-3.408,5.04-3.408,8.352c0,2.307,0.507,4.357,1.511,6.142c1.005,1.792,2.427,3.199,4.261,4.22
			c1.841,1.021,3.883,1.527,6.133,1.527c1.914,0,3.666-0.353,5.249-1.069c1.592-0.715,3.336-2.017,5.234-3.898l4.478,4.679
			c-2.556,2.499-4.976,4.237-7.251,5.201c-2.275,0.972-4.88,1.455-7.797,1.455c-5.386,0-9.799-1.704-13.232-5.121
			c-3.432-3.408-5.145-7.789-5.145-13.119c0-3.457,0.779-6.52,2.347-9.204c1.56-2.685,3.795-4.839,6.713-6.472
			c2.91-1.632,6.045-2.451,9.413-2.451c2.854,0,5.603,0.603,8.255,1.808C383.187,394.638,385.47,396.35,387.384,398.568z
			 M324.432,392.491h6.608v22.404c0,1.929,0.169,3.296,0.507,4.091c0.338,0.804,0.892,1.439,1.672,1.922
			c0.779,0.474,1.72,0.715,2.813,0.715c1.166,0,2.162-0.265,3.007-0.803c0.844-0.531,1.423-1.206,1.744-2.034
			c0.322-0.82,0.483-2.396,0.483-4.719v-21.576h6.607v20.644c0,3.489-0.193,5.9-0.587,7.251c-0.394,1.35-1.141,2.653-2.251,3.907
			c-1.102,1.253-2.379,2.186-3.827,2.789c-1.439,0.603-3.119,0.909-5.032,0.909c-2.508,0-4.695-0.579-6.552-1.728
			c-1.865-1.157-3.191-2.596-3.995-4.333c-0.796-1.736-1.198-4.662-1.198-8.794V392.491z M300.397,398.086
			c-3.191,0-5.877,1.117-8.047,3.344c-2.179,2.227-3.264,5.056-3.264,8.497c0,3.827,1.366,6.857,4.107,9.084
			c2.131,1.745,4.567,2.612,7.324,2.612c3.111,0,5.764-1.134,7.95-3.392c2.194-2.259,3.287-5.041,3.287-8.352
			c0-3.296-1.101-6.086-3.311-8.368C306.241,399.228,303.555,398.086,300.397,398.086z M300.493,391.623
			c4.896,0,9.108,1.777,12.629,5.321c3.529,3.545,5.29,7.87,5.29,12.967c0,5.056-1.736,9.333-5.217,12.83
			c-3.473,3.497-7.693,5.25-12.653,5.25c-5.201,0-9.518-1.801-12.951-5.394c-3.441-3.594-5.161-7.863-5.161-12.806
			c0-3.304,0.803-6.35,2.403-9.132c1.6-2.774,3.803-4.977,6.599-6.6C294.239,392.435,297.261,391.623,300.493,391.623z
			 M278.387,398.568l-4.622,4.389c-3.143-3.311-6.673-4.968-10.603-4.968c-3.312,0-6.11,1.134-8.377,3.393
			c-2.275,2.259-3.408,5.04-3.408,8.352c0,2.307,0.507,4.357,1.512,6.142c1.005,1.792,2.427,3.199,4.261,4.22
			c1.841,1.021,3.882,1.527,6.133,1.527c1.914,0,3.666-0.353,5.249-1.069c1.592-0.715,3.336-2.017,5.234-3.898l4.477,4.679
			c-2.556,2.499-4.976,4.237-7.251,5.201c-2.275,0.972-4.88,1.455-7.798,1.455c-5.386,0-9.799-1.704-13.232-5.121
			c-3.432-3.408-5.145-7.789-5.145-13.119c0-3.457,0.78-6.52,2.347-9.204c1.56-2.685,3.795-4.839,6.713-6.472
			c2.91-1.632,6.045-2.451,9.414-2.451c2.853,0,5.603,0.603,8.255,1.808C274.19,394.638,276.473,396.35,278.387,398.568z"/>
		<path fill="#FFFFFF" d="M483.431,392.491h17.364v3.376h-13.891v10.852h13.891v3.376h-13.891v17.026h-3.473V392.491z
			 M457.619,392.491h19.824v3.376h-16.351v10.852h16.206v3.376h-16.206v13.65h16.206v3.376h-19.679V392.491z M431.959,395.867
			v11.769l5.981,0.048c2.323,0,4.035-0.217,5.145-0.659c1.11-0.442,1.977-1.141,2.605-2.106c0.619-0.965,0.932-2.042,0.932-3.239
			c0-1.158-0.313-2.219-0.948-3.167c-0.627-0.949-1.455-1.624-2.484-2.034c-1.021-0.411-2.725-0.611-5.105-0.611H431.959z
			 M428.486,392.491h6.913c3.851,0,6.463,0.161,7.83,0.475c2.066,0.466,3.738,1.471,5.024,3.022
			c1.295,1.543,1.938,3.449,1.938,5.707c0,1.881-0.442,3.538-1.334,4.96c-0.885,1.431-2.155,2.508-3.811,3.239
			c-1.648,0.731-3.931,1.102-6.841,1.117l12.468,16.11h-4.252l-12.469-16.11h-1.993v16.11h-3.473V392.491z"/>
	</g>
	<g>
		<path fill-rule="evenodd" clip-rule="evenodd" fill="#FFFFFF" d="M141.038,394.559c-0.294,0.078-0.586,0.167-0.877,0.263
			c-1.528,0.509-2.813,1.373-3.907,2.555c-1.327,1.436-2.195,3.316-2.782,5.163c-0.565,1.775-0.842,3.696-0.981,5.549l-0.119,1.574
			v1.782c0,2.899,0.216,6.132,1.1,8.909c0.587,1.846,1.455,3.727,2.782,5.162c1.094,1.182,2.379,2.046,3.907,2.556
			c0.29,0.097,0.583,0.185,0.877,0.264V394.559z M152.405,393.997h-6.964c-0.571,0-1.139,0.025-1.704,0.079v34.742
			c0.565,0.054,1.133,0.08,1.704,0.08h6.964V393.997z M163.77,428.899v-34.901h-8.666v34.901H163.77z"/>
		<path fill-rule="evenodd" clip-rule="evenodd" fill="#FFFFFF" d="M117.514,414.8c-1.029-9.78,4.158-29.906,16.635-33.338
			c0.589-0.189,1.1-1.11,1.445-1.432c-9.287,2.547-18.869,1.278-23.247,11.561c-3.049,7.161-3.265,13.569-4.063,19.046l-0.581,4.277
			L117.514,414.8z"/>
		<path fill-rule="evenodd" clip-rule="evenodd" fill="#FFFFFF" d="M157.679,379.35c-2.266,9.753-14.402,9.753-16.669,0
			C147.757,382.014,150.934,382.014,157.679,379.35 M135.225,381.94c-15.512,4.266-21.071,32.073-13.414,48.484
			c3.837,8.223,14.097,11.707,23.63,11.707h21.041v-10.521h-21.041c-14.657,0-15.782-9.104-15.782-20.165
			c0-3.466,0.125-6.262,1.228-9.727c0.818-2.572,1.944-4.632,3.376-6.181c1.433-1.549,3.112-2.644,5.041-3.288
			c1.929-0.643,3.976-0.965,6.138-0.965h21.041v-0.004h9.447l2.817-10.522h-2.619c-6.545,0-12.761,1.104-18.312-3.278
			c-2.938,2.996-14.002,2.996-16.94,0c-0.97,0.766-2.047,1.369-3.201,1.845C137.674,379.326,137.295,381.277,135.225,381.94z"/>
		<path fill-rule="evenodd" clip-rule="evenodd" fill="#FFFFFF" d="M180.73,380.759l-2.816,10.522h10.488h18.504h5.607
			c2.046,0,3.799,0.584,5.26,1.753c1.461,1.169,2.192,3.215,2.192,6.138c0,3.331-0.731,5.626-2.192,6.882
			c-1.461,1.256-3.215,1.885-5.26,1.885h-5.607h-18.504h-12.274v34.193h12.274V418.46h16.571l12.975,23.672h14.203l-13.94-24.11
			c1.987-0.409,3.843-1.052,5.568-1.929c1.724-0.878,3.214-2.075,4.47-3.595c1.257-1.519,2.236-3.375,2.938-5.567
			c0.702-2.191,1.052-4.778,1.052-7.758c0-3.391-0.512-6.269-1.535-8.636c-1.022-2.368-2.439-4.267-4.251-5.699
			c-1.812-1.432-3.917-2.469-6.313-3.112c-2.396-0.643-4.938-0.965-7.627-0.965h-24.111H180.73z"/>
	</g>
</g>
</svg>
