<?xml version="1.0" encoding="utf-8"?>
<!-- Generator: Adobe Illustrator 17.0.0, SVG Export Plug-In . SVG Version: 6.00 Build 0)  -->
<!DOCTYPE svg PUBLIC "-//W3C//DTD SVG 1.1//EN" "http://www.w3.org/Graphics/SVG/1.1/DTD/svg11.dtd">
<svg version="1.1" id="Layer_1" xmlns="http://www.w3.org/2000/svg" xmlns:xlink="http://www.w3.org/1999/xlink" x="0px" y="0px"
	 width="595.28px" height="841.89px" viewBox="0 0 595.28 841.89" enable-background="new 0 0 595.28 841.89" xml:space="preserve">
<g>
	<rect x="188.186" y="292.317" fill-rule="evenodd" clip-rule="evenodd" fill="#EF8200" width="232.898" height="232.898"/>
	<path fill-rule="evenodd" clip-rule="evenodd" fill="#FFFFFF" d="M267.609,389.253c-0.376,0.1-0.75,0.213-1.122,0.337
		c-1.955,0.651-3.6,1.757-5,3.27c-1.699,1.838-2.81,4.244-3.561,6.607c-0.724,2.272-1.077,4.73-1.255,7.101l-0.153,2.014v2.281
		c0,3.709,0.277,7.847,1.408,11.401c0.751,2.362,1.862,4.77,3.561,6.606c1.4,1.513,3.045,2.619,5,3.271
		c0.372,0.124,0.746,0.236,1.122,0.337V389.253z M282.156,388.534h-8.912c-0.731,0-1.458,0.033-2.18,0.101v44.461
		c0.723,0.07,1.45,0.102,2.18,0.102h8.912V388.534z M296.7,433.199v-44.665h-11.09v44.665H296.7z"/>
	<path fill-rule="evenodd" clip-rule="evenodd" fill="#FFFFFF" d="M237.505,415.156c-1.317-12.517,5.321-38.272,21.288-42.664
		c0.754-0.242,1.408-1.421,1.85-1.833c-11.885,3.259-24.147,1.636-29.751,14.795c-3.902,9.165-4.178,17.365-5.2,24.374l-0.744,5.474
		L237.505,415.156z"/>
	<path fill-rule="evenodd" clip-rule="evenodd" fill="#FFFFFF" d="M288.906,369.79c-2.9,12.481-18.431,12.481-21.332,0
		C276.208,373.198,280.274,373.198,288.906,369.79 M260.17,373.104c-19.851,5.459-26.965,41.045-17.167,62.047
		c4.91,10.523,18.04,14.982,30.241,14.982h26.927V436.67h-26.927c-18.757,0-20.197-11.651-20.197-25.806
		c0-4.435,0.16-8.014,1.571-12.449c1.047-3.292,2.488-5.928,4.32-7.911c1.833-1.982,3.983-3.384,6.451-4.207
		c2.469-0.823,5.088-1.235,7.855-1.235h26.927v-0.004h12.089l3.605-13.465h-3.351c-8.376,0-16.331,1.413-23.435-4.195
		c-3.761,3.834-17.919,3.834-21.679,0c-1.242,0.98-2.62,1.752-4.096,2.361C263.304,369.758,262.819,372.255,260.17,373.104z"/>
	<path fill-rule="evenodd" clip-rule="evenodd" fill="#FFFFFF" d="M318.404,371.593l-3.604,13.465h13.422h23.681h7.175
		c2.618,0,4.862,0.747,6.732,2.243c1.869,1.497,2.805,4.115,2.805,7.855c0,4.263-0.936,7.199-2.805,8.807
		c-1.87,1.608-4.114,2.412-6.732,2.412h-7.175h-23.681h-15.708v43.758h15.708V419.84h21.207l16.605,30.294h18.177l-17.839-30.855
		c2.543-0.524,4.918-1.347,7.125-2.468c2.206-1.123,4.113-2.656,5.721-4.601c1.609-1.945,2.861-4.319,3.76-7.125
		c0.898-2.804,1.346-6.114,1.346-9.929c0-4.339-0.655-8.023-1.964-11.052c-1.308-3.031-3.122-5.461-5.44-7.294
		c-2.319-1.832-5.012-3.16-8.079-3.983c-3.067-0.823-6.32-1.234-9.761-1.234h-30.856H318.404z"/>
	<path fill-rule="evenodd" clip-rule="evenodd" fill="#E50013" d="M267.609,389.253v43.227l-1.122-0.337
		c-1.955-0.652-3.6-1.758-5-3.271c-1.699-1.837-2.81-4.244-3.561-6.606c-1.131-3.554-1.408-7.692-1.408-11.401v-2.281l0.153-2.014
		c0.178-2.371,0.532-4.829,1.255-7.101c0.751-2.363,1.862-4.77,3.561-6.607c1.4-1.513,3.045-2.619,5-3.27L267.609,389.253z
		 M282.156,388.534v44.665h-8.912c-0.731,0-1.458-0.033-2.18-0.102v-44.461c0.723-0.069,1.45-0.101,2.18-0.101H282.156z
		 M296.7,388.534v44.665h-11.09v-44.665H296.7z M267.574,369.79c2.901,12.481,18.432,12.481,21.332,0
		C280.274,373.198,276.208,373.198,267.574,369.79z M241.727,432.082c-7.822-21.227-0.47-53.776,18.443-58.978
		c0.788-0.252,1.384-0.65,1.833-1.085l-1.36-1.36c-0.441,0.412-1.096,1.592-1.85,1.833c-15.967,4.393-22.605,30.148-21.288,42.664
		l-12.557,0.146L241.727,432.082z M421.084,420.977l-41.397-41.397c1.049,1.32,1.939,2.829,2.671,4.525
		c1.31,3.03,1.964,6.713,1.964,11.052c0,3.814-0.449,7.124-1.346,9.929c-0.898,2.805-2.151,5.18-3.76,7.125
		c-1.608,1.945-3.515,3.478-5.721,4.601c-2.207,1.121-4.582,1.945-7.125,2.468l17.839,30.855h-18.177l-16.605-30.294h-21.207v30.294
		h-15.708v-43.758h15.708h23.681h7.175c2.618,0,4.862-0.804,6.732-2.412c1.869-1.608,2.805-4.544,2.805-8.807
		c0-3.74-0.936-6.359-2.805-7.855c-1.87-1.496-4.114-2.243-6.732-2.243h-7.175h-22.572h-1.109H314.8l3.068-11.463l-2.002-2.002
		l-3.605,13.465l-12.089,0.004l-25.13-0.004l-1.798,0.004c-2.767,0-5.387,0.413-7.855,1.235c-2.468,0.823-4.618,2.225-6.451,4.207
		c-1.832,1.982-3.273,4.619-4.32,7.911c-1.411,4.435-1.571,8.014-1.571,12.449c0,14.155,1.44,25.806,20.197,25.806h26.927v13.464
		h-26.927c-5.561,0-11.315-0.926-16.396-2.931l78.012,78.012h86.224v-38.207V420.977z"/>
</g>
</svg>
