<?xml version="1.0" encoding="utf-8"?>
<!-- Generator: Adobe Illustrator 13.0.2, SVG Export Plug-In . SVG Version: 6.00 Build 14948)  -->
<!DOCTYPE svg PUBLIC "-//W3C//DTD SVG 1.1//EN" "http://www.w3.org/Graphics/SVG/1.1/DTD/svg11.dtd">
<svg version="1.1" id="Layer_1" xmlns="http://www.w3.org/2000/svg" xmlns:xlink="http://www.w3.org/1999/xlink" x="0px" y="0px"
	 width="64px" height="64px" viewBox="0 0 64 64" enable-background="new 0 0 64 64" xml:space="preserve">
<g>
	<path fill="#FFFFFF" stroke="#FFFFFF" d="M17.299,25.252c-0.151,0.04-0.3,0.085-0.45,0.134c-0.784,0.262-1.442,0.704-2.004,1.311
		c-0.681,0.736-1.126,1.701-1.427,2.648c-0.29,0.911-0.432,1.896-0.503,2.847L12.854,33v0.914c0,1.486,0.111,3.146,0.564,4.568
		c0.301,0.949,0.746,1.912,1.427,2.649c0.562,0.605,1.22,1.05,2.004,1.311c0.149,0.052,0.299,0.094,0.45,0.135V25.252z
		 M23.13,24.963h-3.572c-0.293,0-0.585,0.013-0.874,0.041v17.821c0.289,0.028,0.581,0.041,0.874,0.041h3.572V24.963z M28.96,42.867
		V24.964h-4.445v17.903H28.96z"/>
	<path fill="#FFFFFF" stroke="#FFFFFF" d="M5.232,35.635c-0.528-5.018,2.132-15.341,8.533-17.101
		c0.303-0.098,0.564-0.569,0.741-0.735c-4.764,1.307-9.68,0.656-11.925,5.931c-1.564,3.673-1.675,6.96-2.084,9.769L0.2,35.693
		L5.232,35.635z"/>
	<path fill="#FFFFFF" stroke="#FFFFFF" d="M25.835,17.45c-1.163,5.003-7.388,5.003-8.551,0
		C20.745,18.817,22.376,18.817,25.835,17.45 M14.317,18.779C6.36,20.967,3.509,35.23,7.436,43.649
		c1.968,4.219,7.232,6.005,12.122,6.005h10.792v-5.396H19.558c-7.519,0-8.096-4.671-8.096-10.344c0-1.779,0.064-3.212,0.63-4.99
		c0.419-1.319,0.997-2.376,1.731-3.171c0.735-0.794,1.596-1.356,2.586-1.687c0.989-0.33,2.04-0.495,3.148-0.495h10.794v-0.002h4.844
		l1.447-5.397h-1.345c-3.356,0-6.545,0.566-9.394-1.681c-1.507,1.537-7.182,1.537-8.689,0c-0.498,0.393-1.05,0.702-1.642,0.947
		C15.574,17.438,15.379,18.438,14.317,18.779z"/>
	<path fill="#FFFFFF" stroke="#FFFFFF" d="M37.659,18.172l-1.444,5.398h5.38h9.493h2.875c1.051,0,1.948,0.3,2.698,0.899
		s1.123,1.649,1.123,3.148c0,1.708-0.373,2.886-1.123,3.531c-0.75,0.645-1.647,0.966-2.698,0.966h-2.875h-9.493h-6.296v17.542h6.296
		V37.512h8.5l6.655,12.145h7.287l-7.152-12.369c1.021-0.21,1.972-0.539,2.856-0.989c0.886-0.45,1.65-1.064,2.295-1.845
		c0.644-0.779,1.146-1.731,1.505-2.855c0.362-1.124,0.542-2.451,0.542-3.98c0-1.739-0.264-3.215-0.789-4.43
		c-0.523-1.215-1.25-2.189-2.179-2.923c-0.93-0.734-2.011-1.266-3.24-1.597c-1.229-0.33-2.532-0.495-3.912-0.495H41.595h-3.936
		V18.172z"/>
</g>
</svg>
