<?xml version="1.0" encoding="utf-8"?>
<!-- Generator: Adobe Illustrator 13.0.2, SVG Export Plug-In . SVG Version: 6.00 Build 14948)  -->
<!DOCTYPE svg PUBLIC "-//W3C//DTD SVG 1.1//EN" "http://www.w3.org/Graphics/SVG/1.1/DTD/svg11.dtd">
<svg version="1.1" id="Layer_1" xmlns="http://www.w3.org/2000/svg" xmlns:xlink="http://www.w3.org/1999/xlink" x="0px" y="0px"
	 width="64px" height="64px" viewBox="0 0 64 64" enable-background="new 0 0 64 64" xml:space="preserve">
<g>
	<path fill="#FFFFFF" stroke="#FFFFFF" d="M17.199,9.216c-0.151,0.04-0.3,0.085-0.45,0.134c-0.784,0.262-1.442,0.704-2.004,1.311
		c-0.681,0.736-1.126,1.701-1.427,2.648c-0.29,0.911-0.432,1.896-0.503,2.847l-0.061,0.808v0.914c0,1.486,0.111,3.146,0.564,4.568
		c0.301,0.949,0.746,1.912,1.427,2.649c0.562,0.605,1.22,1.05,2.004,1.311c0.149,0.052,0.299,0.094,0.45,0.135V9.216z M23.03,8.928
		h-3.572c-0.293,0-0.585,0.013-0.874,0.041V26.79c0.289,0.028,0.581,0.041,0.874,0.041h3.572V8.928z M28.86,26.832V8.928h-4.445
		v17.903H28.86z"/>
	<path fill="#FFFFFF" stroke="#FFFFFF" d="M5.133,19.599C4.605,14.582,7.265,4.258,13.666,2.498
		c0.303-0.098,0.564-0.569,0.741-0.735C9.643,3.07,4.727,2.419,2.482,7.694c-1.564,3.673-1.675,6.96-2.084,9.769L0.1,19.658
		L5.133,19.599z"/>
	<path fill="#FFFFFF" stroke="#FFFFFF" d="M25.736,1.414c-1.163,5.003-7.388,5.003-8.551,0C20.646,2.781,22.276,2.781,25.736,1.414
		 M14.218,2.743C6.26,4.931,3.41,19.195,7.336,27.614c1.968,4.219,7.232,6.005,12.122,6.005h10.792v-5.397H19.458
		c-7.519,0-8.096-4.671-8.096-10.344c0-1.779,0.064-3.212,0.63-4.99c0.419-1.319,0.997-2.376,1.731-3.171
		c0.735-0.794,1.596-1.356,2.586-1.687c0.989-0.33,2.04-0.495,3.148-0.495h10.794V7.534h4.844l1.447-5.397h-1.345
		c-3.356,0-6.545,0.566-9.394-1.681c-1.507,1.537-7.182,1.537-8.689,0c-0.498,0.393-1.05,0.702-1.642,0.947
		C15.474,1.402,15.279,2.403,14.218,2.743z"/>
	<path fill="#FFFFFF" stroke="#FFFFFF" d="M37.56,2.136l-1.444,5.398h5.38h9.493h2.875c1.051,0,1.948,0.3,2.698,0.899
		s1.123,1.649,1.123,3.148c0,1.708-0.373,2.886-1.123,3.531c-0.75,0.645-1.647,0.966-2.698,0.966h-2.875h-9.493h-6.296v17.542h6.296
		V21.476h8.5l6.655,12.145h7.287l-7.152-12.37c1.021-0.21,1.972-0.539,2.856-0.989c0.886-0.45,1.65-1.064,2.295-1.845
		c0.644-0.779,1.146-1.731,1.505-2.855c0.362-1.124,0.542-2.451,0.542-3.98c0-1.739-0.264-3.215-0.789-4.43
		c-0.523-1.215-1.25-2.189-2.179-2.923c-0.93-0.734-2.011-1.266-3.24-1.597c-1.229-0.33-2.532-0.495-3.912-0.495H41.495H37.56V2.136
		z"/>
</g>
</svg>
