<?xml version="1.0" encoding="utf-8"?>
<!-- Generator: Adobe Illustrator 13.0.2, SVG Export Plug-In . SVG Version: 6.00 Build 14948)  -->
<!DOCTYPE svg PUBLIC "-//W3C//DTD SVG 1.1//EN" "http://www.w3.org/Graphics/SVG/1.1/DTD/svg11.dtd">
<svg version="1.1" id="Layer_1" xmlns="http://www.w3.org/2000/svg" xmlns:xlink="http://www.w3.org/1999/xlink" x="0px" y="0px"
	 width="64px" height="32px" viewBox="0 0 64 32" enable-background="new 0 0 64 32" xml:space="preserve">
<path fill="#FFFFFF" stroke="#FFFFFF" d="M5.731,18.57C5.223,13.735,7.786,3.788,13.953,2.092c0.292-0.094,0.544-0.549,0.714-0.709
	c-4.59,1.26-9.327,0.632-11.489,5.715c-1.507,3.539-1.614,6.706-2.009,9.412l-0.287,2.115L5.731,18.57z"/>
<path fill="#FFFFFF" stroke="#FFFFFF" d="M25.583,1.047c-1.12,4.82-7.118,4.82-8.239,0C20.678,2.365,22.25,2.365,25.583,1.047
	 M14.485,2.328C6.818,4.437,4.071,18.18,7.855,26.291c1.896,4.064,6.968,5.787,11.68,5.787h10.398v-5.199H19.535
	c-7.245,0-7.801-4.502-7.801-9.967c0-1.715,0.062-3.096,0.607-4.809c0.404-1.271,0.961-2.289,1.668-3.055
	c0.708-0.766,1.538-1.307,2.491-1.625c0.954-0.317,1.965-0.477,3.034-0.477h10.4V6.944h4.668l1.395-5.2h-1.296
	c-3.234,0-6.307,0.545-9.051-1.62c-1.452,1.48-6.92,1.48-8.373,0c-0.479,0.378-1.012,0.677-1.582,0.913
	C15.696,1.036,15.508,2,14.485,2.328z"/>
<path fill="#FFFFFF" stroke="#FFFFFF" d="M36.976,1.744l-1.393,5.201h5.185h9.146h2.77c1.014,0,1.878,0.289,2.601,0.867
	s1.082,1.588,1.082,3.033c0,1.646-0.359,2.78-1.082,3.402c-0.723,0.621-1.587,0.931-2.601,0.931h-2.77h-9.146h-6.066V32.08h6.066
	V20.379h8.189L55.37,32.08h7.021L55.5,20.162c0.982-0.203,1.899-0.52,2.752-0.955c0.853-0.432,1.59-1.025,2.211-1.775
	c0.62-0.752,1.104-1.669,1.45-2.752c0.349-1.083,0.522-2.361,0.522-3.834c0-1.676-0.254-3.098-0.76-4.269
	c-0.506-1.17-1.205-2.109-2.101-2.816c-0.896-0.707-1.938-1.22-3.121-1.538c-1.185-0.318-2.439-0.477-3.771-0.477H40.768h-3.792
	V1.744z"/>
</svg>
